<svg width="118" height="118" viewBox="0 0 118 118" fill="none" xmlns="http://www.w3.org/2000/svg">
<rect width="118" height="118" rx="30" fill="url(#paint0_linear_100_4)"/>
<path d="M47.293 25.6543C48.076 25.3467 48.9616 25.5079 49.583 26.0508L49.585 26.0527L59.9102 35.1543C60.8328 35.966 60.9044 37.3657 60.0908 38.2754C59.3247 39.1318 58.0422 39.2464 57.1318 38.5947L56.9551 38.4541L49.9287 32.2568L48.2695 51.1475L51.7295 54.4189L75.4766 37.2979L75.4775 37.2969C76.1727 36.7982 77.1018 36.74 77.8555 37.1504C78.6111 37.5618 79.0586 38.372 78.999 39.2285L75.8096 86.5908L89.5928 79.751L93.6768 35.2314L85.9502 39.8262C84.8997 40.4569 83.5395 40.1207 82.9033 39.0791C82.2631 38.0307 82.6093 36.6759 83.6582 36.0459L83.6592 36.0449L95.1328 29.2178C95.8479 28.7899 96.7478 28.8081 97.4531 29.2451C98.1636 29.6855 98.5652 30.4809 98.4912 31.3184V31.3203L93.9014 81.3838V81.3867C93.8272 82.1522 93.3664 82.8105 92.6924 83.1592L92.6855 83.1631L74.3281 92.2656C74.0181 92.425 73.685 92.4949 73.3594 92.498V92.5H73.3369V92.499C72.922 92.4949 72.5007 92.3795 72.1318 92.1318V92.1328C71.4655 91.6923 71.0954 90.9413 71.1396 90.1514V90.1455L74.2686 43.6455L52.8623 59.0791L52.8613 59.0781C51.9864 59.7099 50.8041 59.6191 50.0254 58.8906L50.0234 58.8887L47.791 56.7764L45.7363 80.2334C45.6618 81.0878 45.0969 81.8228 44.2832 82.1162L44.2822 82.1152L22.4863 90.0801H22.4854C21.7596 90.3444 20.9635 90.2115 20.3623 89.7607L20.3564 89.7559C19.7471 89.2842 19.4368 88.5341 19.5107 87.7861V87.7822L25.2598 34.3047C25.3494 33.4623 25.9146 32.7596 26.6943 32.4678L26.6973 32.4668C27.4966 32.1732 28.3844 32.3641 28.9912 32.9365L44.165 47.2695L45.8994 27.5098V27.5088C45.9738 26.6833 46.5086 25.9625 47.293 25.6543ZM24.3193 84.7227L41.4404 78.4629L43.6865 52.8975L29.1973 39.2246L24.3193 84.7227Z" fill="white" stroke="white"/>
<defs>
<linearGradient id="paint0_linear_100_4" x1="25" y1="94" x2="98.5" y2="23" gradientUnits="userSpaceOnUse">
<stop stop-color="#F16A5D"/>
<stop offset="1" stop-color="#6C63F7"/>
</linearGradient>
</defs>
</svg>
